<svg width="30" height="30" preserveAspectRatio="xMidYMid" version="1.0" viewBox="0 0 22.5 22.5" xmlns="http://www.w3.org/2000/svg">
	<g transform="matrix(.1 0 0 -.1 -4.5872 778.9)">
		<g transform="matrix(.032143 0 0 .032143 44.397 7538.6)">
			<rect transform="scale(1,-1)" x="45.872" y="-7789" width="7e3" height="7e3" rx="836.43" ry="750.41" fill="#007aff"/>
			<path d="m2705.2 5639v-804.83h870.45v-421.89h-2908.9v-214.19h1264.8l-1.488-225.22-2.2319-225.87-466.47-1.9471-467.21-1.2981v-1609.7l1055 1.2981 1054.2 1.9472 2.232 803.53 1.4879 802.88h-840.69v454.34h2998.2v-428.38h-952.28v-1616.1h2112.9l-1.4879 806.78-2.232 806.13-410.67 1.9471-411.42 1.2982v428.38h766.29v214.19h-2455.1l1.488 209.64 2.2319 209 452.34 1.9471 451.59 1.2981-1.4879 803.53-2.232 802.88-1054.2 1.9472-1055 1.2981zm1778.1-3.2453v-516h-1450.7v1032h1450.7zm1607-2674.1v-516h-1450.7v1032h1450.7zm-3318.1-19.472v-516h-1450.7v1032h1450.7z" fill="#fff" stroke-width=".6949"/>
		</g>
	</g>
</svg>
