<?xml version="1.0" encoding="UTF-8" standalone="no"?>
<svg
   width="100"
   height="100"
   viewBox="0 0 100 100"
   fill="none"
   version="1.1"
   id="svg37"
   sodipodi:docname="MariaDbDatabase.svg"
   inkscape:version="1.3.2 (091e20e, 2023-11-25, custom)"
   xmlns:inkscape="http://www.inkscape.org/namespaces/inkscape"
   xmlns:sodipodi="http://sodipodi.sourceforge.net/DTD/sodipodi-0.dtd"
   xmlns:xlink="http://www.w3.org/1999/xlink"
   xmlns="http://www.w3.org/2000/svg"
   xmlns:svg="http://www.w3.org/2000/svg">
  <sodipodi:namedview
     id="namedview37"
     pagecolor="#505050"
     bordercolor="#ffffff"
     borderopacity="1"
     inkscape:showpageshadow="0"
     inkscape:pageopacity="0"
     inkscape:pagecheckerboard="1"
     inkscape:deskcolor="#505050"
     inkscape:zoom="4.46"
     inkscape:cx="60.426009"
     inkscape:cy="54.596413"
     inkscape:window-width="1920"
     inkscape:window-height="1027"
     inkscape:window-x="-8"
     inkscape:window-y="1102"
     inkscape:window-maximized="1"
     inkscape:current-layer="g25" />
  <g
     clip-path="url(#clip0_1321_1233)"
     id="g25">
    <path
       d="m 49.157093,28.579083 c -19.576582,0 -35.447787,-5.530061 -35.447787,-12.829812 v 68.352168 c 0,7.023266 15.594715,12.719066 34.950054,12.829816 h 0.497733 c 19.576582,0 35.448041,-5.53007 35.448041,-12.829816 V 15.749271 c 0,7.133755 -15.871459,12.829812 -35.448041,12.829812 z"
       fill="url(#paint1_linear_1321_1233)"
       id="path5"
       style="display:inline;fill:url(#paint1_linear_1321_1233);stroke-width:2.54595"
       inkscape:label="DBcilinder" />
    <path
       d="m 49.304289,28.579083 c -19.576582,0 -35.447787,-5.530061 -35.447787,-12.829812 v 68.352168 c 0,7.023266 15.594715,12.719066 34.950054,12.829816 h 0.497733 c 19.576582,0 35.448043,-5.53007 35.448043,-12.829816 V 15.749271 c 0,7.133755 -15.871461,12.829812 -35.448043,12.829812 z"
       fill="url(#paint1_linear_1321_1233)"
       id="path5-4"
       style="display:inline;fill:url(#linearGradient59);fill-opacity:1;stroke-width:2.54595"
       inkscape:label="shadow" />
    <path
       d="m 84.605134,15.749271 c 0,7.133755 -15.871459,12.829812 -35.448041,12.829812 -19.576327,0 -35.447787,-5.530061 -35.447787,-12.829812 0,-7.2997513 15.87146,-12.8298123 35.447787,-12.8298123 19.576582,0 35.448041,5.530061 35.448041,12.8298123 z"
       fill="#e8e8e8"
       id="path6"
       style="stroke-width:2.54595;fill:#003545;fill-opacity:1"
       inkscape:label="contentBorder" />
    <path
       d="m 76.364908,14.698557 c 0,4.534848 -12.221583,8.184469 -27.20807,8.184469 -14.986487,0 -27.208071,-3.649621 -27.208071,-8.184469 0,-4.534593 12.221584,-8.1292223 27.208071,-8.1292223 14.986742,0 27.20807,3.6498753 27.20807,8.1292223 z"
       fill="#50e6ff"
       id="path7"
       style="stroke-width:2.54595;fill:#2d6872;fill-opacity:1"
       inkscape:label="ledge" />
    <path
       class="cls-1"
       d="m 75.770359,39.136489 a 0.76484653,0.76484653 0 0 0 -0.517182,-0.182095 c -0.517182,0 -1.183697,0.349645 -1.540611,0.546319 l -0.143889,0.07284 a 4.8822704,4.8822704 0 0 1 -1.924861,0.484403 c -0.684725,0.02185 -1.274745,0.06193 -2.043243,0.140228 -4.552656,0.469836 -6.583137,3.958992 -8.53897,7.333421 -1.063487,1.835633 -2.163413,3.733182 -3.671265,5.202779 a 10.145143,10.145143 0 0 1 -0.994286,0.843152 c -1.560652,1.16366 -3.520123,1.984959 -5.051631,2.571341 -1.469603,0.560887 -3.07031,1.065322 -4.620047,1.553368 -1.416784,0.44616 -2.757092,0.866825 -3.988123,1.325733 -0.555431,0.20578 -1.027089,0.364212 -1.444098,0.502613 -1.119965,0.364214 -1.930329,0.642836 -3.110388,1.45685 -0.460725,0.315045 -0.923278,0.655584 -1.238307,0.910532 a 12.976897,12.976897 0 0 0 -2.465719,2.598659 15.444436,15.444436 0 0 1 -2.070558,2.493046 c -0.247656,0.244019 -0.692,0.36421 -1.35305,0.36421 -0.777602,0 -1.717261,-0.16035 -2.715206,-0.32962 -0.997945,-0.169292 -2.086937,-0.364211 -2.997473,-0.364211 -0.741163,0 -1.305697,0.120108 -1.730002,0.364211 0,0 -0.710212,0.4152 -1.012518,0.952421 l 0.295011,0.132913 a 6.111488,6.111488 0 0 1 1.262003,0.910536 6.1333408,6.1333408 0 0 0 1.309335,0.932382 1.1600172,1.1600172 0 0 1 0.407925,0.264059 c -0.125597,0.182094 -0.307753,0.417028 -0.498973,0.668324 -1.050744,1.374897 -1.662631,2.243547 -1.311164,2.717034 a 1.0926379,1.0926379 0 0 0 0.546326,0.12377 c 2.292709,0 3.52193,-0.595485 5.080751,-1.349412 0.449811,-0.218534 0.910536,-0.444344 1.456862,-0.673792 0.910535,-0.395161 1.890251,-1.025259 2.928272,-1.691775 1.374898,-0.883201 2.79715,-1.797375 4.173876,-2.239889 a 11.345224,11.345224 0 0 1 3.501892,-0.491697 c 1.456862,0 2.990198,0.194898 4.468906,0.384248 1.103564,0.142059 2.243547,0.287735 3.363492,0.364211 0.435239,0.0254 0.837697,0.03821 1.231051,0.03821 a 14.291703,14.291703 0 0 0 1.567927,-0.0819 l 0.12377,-0.04369 c 0.786706,-0.482593 1.154555,-1.518766 1.50966,-2.520361 0.229468,-0.644656 0.422496,-1.223755 0.72842,-1.591609 a 0.37513901,0.37513901 0 0 1 0.06016,-0.04916 0.07284253,0.07284253 0 0 1 0.08921,0.01464 0.04552658,0.04552658 0 0 1 0,0.02914 c -0.182095,3.917091 -1.760976,6.402849 -3.354387,8.613616 l -1.081717,1.134515 c 0,0 1.489622,0 2.338233,-0.327791 3.095816,-0.925087 5.434069,-2.964692 7.134929,-6.217097 a 26.294332,26.294332 0 0 0 1.121774,-2.56587 c 0.02906,-0.07284 0.298668,-0.207602 0.271354,0.169352 0,0.111088 -0.01423,0.234918 -0.02378,0.364213 v 0 c 0,0.07648 -0.01022,0.1548 -0.01423,0.233095 -0.04552,0.546312 -0.182095,1.700866 -0.182095,1.700866 l 0.956059,-0.511716 c 2.305473,-1.456846 4.082828,-4.396043 5.430412,-8.968732 0.562706,-1.904833 0.97246,-3.796917 1.334841,-5.463188 0.43341,-2.003171 0.806725,-3.720433 1.234688,-4.386943 0.671963,-1.04529 1.697222,-1.751863 2.689701,-2.438403 0.136571,-0.09287 0.271334,-0.182095 0.404288,-0.280443 1.249239,-0.875933 2.489395,-1.886622 2.760729,-3.771423 v -0.04188 c 0.207601,-1.405861 0.03821,-1.755505 -0.143888,-1.928507 z"
       id="path8-3"
       style="display:inline;fill:#ffffff;stroke-width:0.182106"
       inkscape:label="mariadb" />
    <path
       id="path7-0"
       style="display:inline;fill:#15779a;fill-opacity:1;stroke-width:2.54595"
       d="m 49.15625,11.539062 c -12.118681,1e-6 -22.425412,2.349136 -25.927734,5.646485 3.502322,3.311245 13.809052,5.697265 25.927734,5.697265 12.104111,0 22.401559,-2.380505 25.916016,-5.685546 -3.51366,-3.276237 -13.810808,-5.658204 -25.916016,-5.658204 z"
       inkscape:label="content" />
  </g>
  <defs
     id="defs37">
    <linearGradient
       id="linearGradient57"
       inkscape:collect="always">
      <stop
         style="stop-color:#2d6872;stop-opacity:0;"
         offset="0.17210701"
         id="stop59" />
      <stop
         style="stop-color:#198ab3;stop-opacity:1;"
         offset="0.87764704"
         id="stop58" />
    </linearGradient>
    <linearGradient
       id="paint0_linear_1321_1233"
       x1="47.8698"
       y1="-15.1532"
       x2="51.8525"
       y2="130.615"
       gradientUnits="userSpaceOnUse"
       gradientTransform="translate(22.141998,15.76414)">
      <stop
         stop-color="#00ABDE"
         id="stop25" />
      <stop
         offset="1"
         stop-color="#007ED8"
         id="stop26" />
    </linearGradient>
    <linearGradient
       id="paint1_linear_1321_1233"
       x1="35.6824"
       y1="66.346397"
       x2="63.5289"
       y2="66.346397"
       gradientUnits="userSpaceOnUse"
       gradientTransform="matrix(2.5459511,0,0,2.5459511,-77.13634,-112.5743)"
       spreadMethod="pad">
      <stop
         stop-color="#005BA1"
         id="stop27"
         offset="0"
         style="stop-color:#39e4ff;stop-opacity:1;" />
      <stop
         offset="0.36000001"
         stop-color="#0071C8"
         id="stop29"
         style="stop-color:#1caad7;stop-opacity:1;" />
      <stop
         offset="0.58117646"
         stop-color="#0074CD"
         id="stop31"
         style="stop-color:#1caad7;stop-opacity:1;" />
      <stop
         offset="1"
         stop-color="#005BA1"
         id="stop33"
         style="stop-color:#39e4ff;stop-opacity:1;" />
    </linearGradient>
    <linearGradient
       id="paint2_linear_1321_1233"
       x1="38.6607"
       y1="508.884"
       x2="69.8901"
       y2="-257.99"
       gradientUnits="userSpaceOnUse">
      <stop
         stop-color="#007ED8"
         id="stop34" />
      <stop
         offset="0.7065"
         stop-color="#002D4C"
         id="stop35" />
    </linearGradient>
    <linearGradient
       id="paint3_linear_1321_1233"
       x1="49.3296"
       y1="57.596"
       x2="51.3931"
       y2="108.266"
       gradientUnits="userSpaceOnUse">
      <stop
         stop-color="#007ED8"
         id="stop36" />
      <stop
         offset="0.7065"
         stop-color="#002D4C"
         id="stop37" />
    </linearGradient>
    <clipPath
       id="clip0_1321_1233">
      <rect
         width="99.2799"
         height="99.28"
         fill="white"
         id="rect37" />
    </clipPath>
    <linearGradient
       inkscape:collect="always"
       xlink:href="#linearGradient57"
       id="linearGradient59"
       x1="49.282513"
       y1="28.313356"
       x2="49.326324"
       y2="96.699013"
       gradientUnits="userSpaceOnUse" />
  </defs>
</svg>
