<?xml version="1.0" encoding="UTF-8" standalone="no"?>
<svg
   width="691.75763"
   height="600.0033"
   viewBox="0 0 183.02753 158.75087"
   version="1.1"
   id="svg6"
   sodipodi:docname="proxmox.svg"
   inkscape:version="1.3.2 (091e20e, 2023-11-25, custom)"
   xmlns:inkscape="http://www.inkscape.org/namespaces/inkscape"
   xmlns:sodipodi="http://sodipodi.sourceforge.net/DTD/sodipodi-0.dtd"
   xmlns="http://www.w3.org/2000/svg"
   xmlns:svg="http://www.w3.org/2000/svg">
  <sodipodi:namedview
     id="namedview6"
     pagecolor="#505050"
     bordercolor="#ffffff"
     borderopacity="1"
     inkscape:showpageshadow="0"
     inkscape:pageopacity="0"
     inkscape:pagecheckerboard="1"
     inkscape:deskcolor="#505050"
     inkscape:zoom="1"
     inkscape:cx="350"
     inkscape:cy="354.5"
     inkscape:window-width="1920"
     inkscape:window-height="1057"
     inkscape:window-x="-8"
     inkscape:window-y="-8"
     inkscape:window-maximized="1"
     inkscape:current-layer="g5" />
  <defs
     id="defs1">
    <clipPath
       clipPathUnits="userSpaceOnUse"
       id="a">
      <path
         style="fill:#e57000;fill-opacity:1;fill-rule:evenodd;stroke:none"
         transform="matrix(0.7345,0.67862,-0.78497,0.61953,0,0)"
         d="m -83,-347.714 h 436.402 v 326.41 H -83 Z"
         id="path1" />
    </clipPath>
  </defs>
  <g
     style="display:inline;fill:#000000;stroke-width:0.198399"
     id="g5"
     inkscape:label="proxmox"
     transform="translate(-225.98698,-79.374561)">
    <path
       style="font-style:normal;font-variant:normal;font-weight:400;font-stretch:normal;font-size:1059.61px;line-height:125%;font-family:Helion;-inkscape-font-specification:Helion;letter-spacing:0;word-spacing:0;display:inline;fill:#e57000;fill-opacity:1;stroke:none;stroke-width:0.198399"
       d="M 1160.63,988.205 1017.363,831.093 c -8.333,-8.887 -18.03,-15.877 -29.093,-20.97 -11.063,-5.093 -23.024,-7.69 -35.884,-7.79 -12.338,0.09 -23.877,2.442 -34.618,7.057 -10.74,4.616 -20.15,10.963 -28.227,19.04 l 145.397,159.778 -145.397,159.777 c 8.077,8.333 17.486,14.835 28.227,19.507 10.74,4.67 22.28,7.045 34.618,7.123 12.894,-0.1 24.921,-2.696 36.084,-7.79 11.162,-5.092 20.793,-12.082 28.893,-20.97 l 143.266,-157.65"
       transform="matrix(0.31877,0,0,0.31877,-57.572,-156.259)"
       id="path5"
       inkscape:label="west"
       sodipodi:nodetypes="ccscccccccccc"
       sodipodi:insensitive="true" />
    <path
       style="display:inline;fill:#000000;stroke-width:0.198399;font-style:normal;font-variant:normal;font-weight:400;font-stretch:normal;font-size:144px;line-height:125%;font-family:Helion;-inkscape-font-specification:Helion;letter-spacing:0;word-spacing:0;fill-opacity:1;stroke:none"
       d="M 276.304,226.623 466.892,17.021 C 459.5,9.628 450.888,3.819 441.058,-0.405 c -9.83,-4.225 -20.392,-6.377 -31.684,-6.459 -11.993,0.092 -22.98,2.468 -32.963,7.129 -9.982,4.661 -18.655,11.059 -26.017,19.193 L 276.304,100.373 202.7,19.458 C 195.073,11.324 186.198,4.926 176.073,0.265 165.949,-4.396 155.002,-6.772 143.233,-6.864 131.94,-6.782 121.379,-4.63 111.549,-0.405 101.719,3.819 93.107,9.628 85.714,17.021 l 190.594,209.597"
       id="path4"
       transform="matrix(0.31810001,0,0,-0.31810001,229.606,235.942)"
       inkscape:label="south" />
    <path
       d="M 276.304,226.623 466.892,17.021 C 459.5,9.628 450.888,3.819 441.058,-0.405 c -9.83,-4.225 -20.392,-6.377 -31.684,-6.459 -11.993,0.092 -22.98,2.468 -32.963,7.129 -9.982,4.661 -18.655,11.059 -26.017,19.193 L 276.304,100.373 202.7,19.458 C 195.073,11.324 186.198,4.926 176.073,0.265 165.949,-4.396 155.002,-6.772 143.233,-6.864 131.94,-6.782 121.379,-4.63 111.549,-0.405 101.719,3.819 93.107,9.628 85.714,17.021 l 190.594,209.597"
       style="display:inline;fill:#000000;stroke-width:0.198399;font-style:normal;font-variant:normal;font-weight:400;font-stretch:normal;font-size:144px;line-height:125%;font-family:Helion;-inkscape-font-specification:Helion;letter-spacing:0;word-spacing:0;fill-opacity:1;stroke:none"
       id="path3"
       transform="matrix(-0.31810001,0,0,0.31810001,405.395,81.558)"
       inkscape:label="north" />
    <path
       style="font-style:normal;font-variant:normal;font-weight:400;font-stretch:normal;font-size:1059.61px;line-height:125%;font-family:Helion;-inkscape-font-specification:Helion;letter-spacing:0;word-spacing:0;display:inline;fill:#e57000;fill-opacity:1;stroke:none;stroke-width:0.198399"
       d="m 1192.62,988.205 143.267,-157.112 c 8.333,-8.887 18.03,-15.877 29.093,-20.97 11.063,-5.093 23.024,-7.69 35.883,-7.79 12.339,0.09 23.878,2.442 34.619,7.057 10.74,4.616 20.15,10.963 28.227,19.04 l -145.397,159.778 145.397,159.777 c -8.077,8.333 -17.486,14.835 -28.227,19.507 -10.74,4.67 -22.28,7.045 -34.618,7.123 -12.894,-0.1 -24.921,-2.696 -36.084,-7.79 -11.162,-5.092 -20.793,-12.082 -28.893,-20.97 l -143.266,-157.65"
       transform="matrix(0.31877,0,0,0.31877,-57.572,-156.259)"
       id="path6"
       inkscape:label="east"
       sodipodi:nodetypes="ccscccccccccc"
       sodipodi:insensitive="true" />
  </g>
</svg>
